<svg version="1.1" id="_x32_" xmlns="http://www.w3.org/2000/svg" x="0" y="0" viewBox="0 0 512 512" style="width:128px;height:128px" xml:space="preserve" opacity="1"><path d="M0 366.061c0 37.182 34.805 67.33 77.738 67.33h329.528c42.937 0 77.741-30.149 77.741-67.33v-.858H0v.858zm488.282-251.24a80.87 80.87 0 00-57.266-23.718h-16.257V78.609H67.339V194.02c0 56.908 25.096 107.902 64.782 142.663h217.852c26.276-23.013 46.092-53.161 56.527-87.422 7.751 2.46 15.995 3.818 24.516 3.811a80.849 80.849 0 0057.266-23.719c14.622-14.59 23.731-34.975 23.718-57.265a80.821 80.821 0 00-23.718-57.267zm-30.725 83.794c-6.866 6.842-16.106 11.003-26.541 11.003-6.021 0-11.637-1.437-16.642-3.922.234-3.874.384-7.748.384-11.677v-59.464h16.257c10.435.024 19.675 4.159 26.541 11.002 6.826 6.858 10.983 16.098 10.99 26.529-.006 10.431-4.162 19.687-10.989 26.529z" fill="#4b4b4b"/></svg>