<svg xmlns="http://www.w3.org/2000/svg" width="24" height="24" fill="#fff"><path d="M20 0a4 4 0 014 4v16a4 4 0 01-4 4H4a4 4 0 01-4-4V4a4 4 0 014-4h16zm-4.42 5.8a3.28 3.28 0 00-3.2 4.03A9.32 9.32 0 015.61 6.4a3.26 3.26 0 001.02 4.38 3.27 3.27 0 01-1.49-.4v.03a3.28 3.28 0 002.64 3.22 3.3 3.3 0 01-1.49.06 3.29 3.29 0 003.07 2.28 6.59 6.59 0 01-4.86 1.36 9.29 9.29 0 005.03 1.47c6.04 0 9.34-5 9.34-9.34v-.42a6.65 6.65 0 001.63-1.7c-.59.26-1.22.44-1.89.52.68-.41 1.2-1.05 1.45-1.82-.64.38-1.34.65-2.09.8a3.28 3.28 0 00-2.4-1.04z"/></svg>